<svg width="203" height="44" viewBox="0 0 203 44" fill="none" xmlns="http://www.w3.org/2000/svg">
<path fill-rule="evenodd" clip-rule="evenodd" d="M125.054 18.5035C125.054 19.3939 124.839 20.0351 124.409 20.4271C123.98 20.8191 123.364 21.0151 122.563 21.0151H121.685V19.2882H122.25C122.477 19.3111 122.705 19.2448 122.887 19.1027C122.954 19.0223 123.005 18.9287 123.036 18.8277C123.067 18.7266 123.078 18.6201 123.068 18.5147V9.14555H125.05L125.054 18.5035ZM123.191 7.84712C123.081 7.73618 122.994 7.60404 122.935 7.45837C122.875 7.3127 122.845 7.15639 122.845 6.9985C122.845 6.84062 122.875 6.68431 122.935 6.53864C122.994 6.39296 123.081 6.26083 123.191 6.14989C123.309 6.03609 123.448 5.94736 123.6 5.88879C123.752 5.83022 123.914 5.80296 124.076 5.80858C124.235 5.80342 124.394 5.83095 124.542 5.88957C124.691 5.94819 124.827 6.0367 124.941 6.14989C125.158 6.37637 125.28 6.6811 125.28 6.9985C125.28 7.31591 125.158 7.62064 124.941 7.84712C124.827 7.96066 124.691 8.04939 124.543 8.10803C124.394 8.16667 124.235 8.19401 124.076 8.18842C123.914 8.19446 123.752 8.16739 123.6 8.1088C123.448 8.05021 123.309 7.96126 123.191 7.84712ZM119.367 7.45864C119.427 7.60435 119.514 7.7364 119.625 7.84709C119.863 8.06699 120.173 8.18864 120.494 8.18864C120.815 8.18864 121.125 8.06699 121.364 7.84709C121.474 7.7364 121.562 7.60435 121.621 7.45864C121.681 7.31293 121.712 7.15649 121.712 6.99847C121.712 6.84045 121.681 6.68401 121.621 6.5383C121.562 6.39259 121.474 6.26053 121.364 6.14985C121.125 5.92995 120.815 5.8083 120.494 5.8083C120.173 5.8083 119.863 5.92995 119.625 6.14985C119.514 6.26053 119.427 6.39259 119.367 6.5383C119.308 6.68401 119.277 6.84045 119.277 6.99847C119.277 7.15649 119.308 7.31293 119.367 7.45864ZM121.471 17.1902V9.14552H119.48V17.1902H121.471ZM105.57 9.00616C105.036 8.99884 104.508 9.12624 104.033 9.37714C103.613 9.59971 103.254 9.92615 102.989 10.3269V6.4464H100.998V17.19H102.978V16.0233C103.254 16.4127 103.616 16.7303 104.033 16.9507C104.51 17.1953 105.037 17.3169 105.57 17.305C106.21 17.311 106.838 17.1295 107.38 16.7819C107.934 16.4224 108.38 15.9134 108.669 15.311C108.995 14.6323 109.157 13.8838 109.144 13.1278C109.159 12.3757 108.996 11.6311 108.669 10.9575C108.38 10.3626 107.933 9.86266 107.38 9.51441C106.835 9.17548 106.208 8.99945 105.57 9.00616ZM106.066 11.0688C106.393 11.2596 106.66 11.5413 106.837 11.8813C107.037 12.2655 107.138 12.696 107.129 13.1315C107.139 13.5753 107.039 14.0145 106.837 14.4076C106.659 14.7516 106.392 15.039 106.066 15.2386C105.756 15.4288 105.401 15.5271 105.04 15.5224C104.684 15.5228 104.335 15.4254 104.028 15.2405C103.705 15.0435 103.44 14.7592 103.264 14.4188C103.072 14.027 102.973 13.5948 102.973 13.1565C102.973 12.7183 103.072 12.2861 103.264 11.8942C103.44 11.5549 103.705 11.2719 104.028 11.0762C104.334 10.8899 104.684 10.7918 105.04 10.7924C105.4 10.7894 105.754 10.8848 106.066 11.0688ZM77.0391 15.2552H73.1019L72.4502 17.1899H70.3685L73.9237 7.04724H76.2317L79.7852 17.1899H77.689L77.0391 15.2552ZM76.496 13.6284L75.0696 9.39926L73.6395 13.6359L76.496 13.6284ZM82.5743 15.5206H86.0716V17.19H80.3224V15.5447L83.7509 10.8147H80.3368V9.14528H86.0299V10.785L82.5743 15.5206ZM88.7468 13.7733H94.4797C94.5184 13.5143 94.5359 13.2525 94.5322 12.9905C94.5458 12.2648 94.3775 11.5476 94.0435 10.9075C93.7279 10.3144 93.2504 9.82838 92.6695 9.50889C92.0572 9.17457 91.3721 9.00481 90.6783 9.01548C89.9628 9.0013 89.2558 9.17635 88.6255 9.52373C88.0348 9.85782 87.5527 10.3622 87.2389 10.9743C86.8954 11.648 86.7224 12.3993 86.7357 13.1593C86.72 13.9167 86.8932 14.6656 87.2389 15.3351C87.557 15.949 88.0417 16.4554 88.6346 16.7931C89.2571 17.1427 89.9576 17.3204 90.6674 17.3088C91.5142 17.3383 92.3462 17.0771 93.0316 16.5668C93.6591 16.0945 94.1187 15.4248 94.3404 14.66H92.2025C92.0674 14.9659 91.8449 15.2227 91.5643 15.3963C91.2838 15.5698 90.9584 15.652 90.6312 15.6319C90.1554 15.6449 89.6933 15.468 89.3424 15.1385C88.9787 14.7797 88.7652 14.2903 88.7468 13.7733ZM92.3496 11.7188C92.445 11.9359 92.4925 12.1719 92.4885 12.41H88.7667C88.8135 11.9241 89.0325 11.4728 89.3822 11.1412C89.7242 10.8347 90.1662 10.6711 90.6204 10.683C91.1006 10.6692 91.569 10.8369 91.9364 11.1542C92.113 11.3089 92.2541 11.5017 92.3496 11.7188ZM98.6095 9.39916C99.0391 9.14952 99.5258 9.02148 100.02 9.02818V11.1613H99.4947C98.8719 11.1613 98.4085 11.3134 98.0863 11.6121C97.7641 11.9107 97.612 12.4338 97.612 13.1794V17.1897H95.6298V9.14503H97.612V10.3934C97.8571 9.98091 98.2003 9.63884 98.6095 9.39916ZM110.206 10.9744C110.495 10.3769 110.942 9.87435 111.496 9.52389C112.042 9.18496 112.669 9.00893 113.307 9.01565C113.841 9.00585 114.369 9.13339 114.844 9.38663C115.257 9.60695 115.618 9.91941 115.899 10.3011V9.14549H117.89V17.1902H115.899V16.0086C115.625 16.4022 115.263 16.7233 114.844 16.9454C114.365 17.1997 113.833 17.3272 113.294 17.3163C112.654 17.3236 112.026 17.142 111.484 16.7933C110.931 16.4332 110.485 15.9243 110.195 15.3223C109.87 14.6435 109.708 13.895 109.722 13.1391C109.711 12.3882 109.877 11.6457 110.206 10.9744ZM115.622 11.9019C115.447 11.5625 115.183 11.2807 114.858 11.0894C114.544 10.9022 114.187 10.8042 113.824 10.8056C113.46 10.8022 113.102 10.9012 112.789 11.0919C112.476 11.2826 112.22 11.5576 112.049 11.887C111.847 12.2726 111.746 12.7054 111.757 13.1428C111.748 13.5829 111.849 14.0182 112.049 14.4078C112.224 14.7522 112.488 15.0404 112.812 15.2407C113.117 15.4318 113.467 15.5326 113.824 15.5319C114.187 15.533 114.544 15.4357 114.858 15.25C115.182 15.0576 115.447 14.7754 115.622 14.4357C115.821 14.0445 115.919 13.6078 115.906 13.1669C115.919 12.7255 115.821 12.288 115.622 11.8963V11.9019ZM127.906 9.52389C127.352 9.87462 126.906 10.3771 126.617 10.9744C126.29 11.646 126.125 12.3885 126.137 13.1391C126.123 13.895 126.285 14.6435 126.61 15.3223C126.9 15.9243 127.346 16.4332 127.899 16.7933C128.44 17.142 129.069 17.3236 129.709 17.3163C130.247 17.3272 130.78 17.1997 131.258 16.9454C131.678 16.7233 132.039 16.4022 132.314 16.0086V17.1902H134.305V9.14549H132.314V10.2918C132.033 9.91393 131.674 9.60474 131.262 9.38663C130.788 9.13339 130.259 9.00585 129.725 9.01565C129.084 9.00719 128.454 9.18329 127.906 9.52389ZM131.269 11.0894C131.594 11.2807 131.859 11.5625 132.033 11.9019V11.8963C132.231 12.2878 132.327 12.7246 132.314 13.1651C132.327 13.6062 132.231 14.0436 132.033 14.4357C131.858 14.7754 131.593 15.0576 131.269 15.25C130.955 15.4357 130.598 15.533 130.235 15.5319C129.878 15.5326 129.528 15.4318 129.224 15.2407C128.899 15.0404 128.635 14.7522 128.46 14.4078C128.26 14.0182 128.16 13.5829 128.168 13.1428C128.157 12.7054 128.258 12.2726 128.46 11.887C128.631 11.5576 128.887 11.2826 129.2 11.0919C129.513 10.9012 129.871 10.8022 130.235 10.8056C130.599 10.8042 130.955 10.9022 131.269 11.0894ZM142.512 9.93528C143.087 10.54 143.375 11.384 143.375 12.4672V17.1898H141.384V12.738C141.384 12.1 141.228 11.6103 140.917 11.2652C140.754 11.0921 140.556 10.9565 140.338 10.8676C140.119 10.7787 139.885 10.7385 139.65 10.7496C139.41 10.737 139.171 10.7764 138.948 10.8652C138.724 10.9541 138.522 11.0904 138.354 11.2652C138.037 11.6103 137.879 12.1 137.879 12.738V17.1898H135.888V9.14509H137.879V10.1412C138.148 9.78902 138.495 9.5079 138.891 9.32131C139.315 9.12031 139.777 9.0189 140.244 9.02453C141.179 9.027 141.935 9.33058 142.512 9.93528ZM150.054 15.2552H153.98L154.632 17.1899H156.728L153.175 7.04724H150.867L147.311 17.1899H149.393L150.054 15.2552ZM152.013 9.39926L153.437 13.6284L150.582 13.6359L152.013 9.39926ZM160.685 9.39914C161.114 9.14966 161.6 9.02162 162.093 9.02816V11.1613H161.57C160.947 11.1613 160.484 11.3134 160.162 11.612C159.839 11.9107 159.687 12.4338 159.687 13.1794V17.1897H157.696V9.14502H159.687V10.3934C159.932 9.9809 160.276 9.63883 160.685 9.39914ZM165.38 14.7098V10.8145H167.13V9.14514H165.374V7.15854H163.383V9.14514H162.449V10.8145H163.383V14.6932C163.383 16.3576 164.219 17.1899 165.89 17.1899H167.135V15.4833H166.216C165.986 15.5047 165.757 15.4387 165.571 15.2979C165.501 15.219 165.448 15.126 165.415 15.0247C165.382 14.9234 165.37 14.8162 165.38 14.7098ZM168.346 7.84665C168.236 7.73596 168.149 7.60391 168.089 7.4582C168.029 7.31249 167.999 7.15605 167.999 6.99803C167.999 6.84 168.029 6.68357 168.089 6.53786C168.149 6.39215 168.236 6.26009 168.346 6.14941C168.586 5.92976 168.896 5.8083 169.217 5.8083C169.538 5.8083 169.848 5.92976 170.088 6.14941C170.197 6.26035 170.284 6.39249 170.344 6.53816C170.403 6.68384 170.434 6.84015 170.434 6.99803C170.434 7.15591 170.403 7.31222 170.344 7.45789C170.284 7.60357 170.197 7.73571 170.088 7.84665C169.848 8.0663 169.538 8.18776 169.217 8.18776C168.896 8.18776 168.586 8.0663 168.346 7.84665ZM170.193 9.14508V17.1898H168.201V9.14508H170.193ZM174.023 10.8148H175.397V9.14541H174.023V8.81153C174.023 8.35708 174.119 8.0436 174.307 7.86924C174.496 7.69488 174.832 7.61326 175.312 7.62253V5.91046C174.207 5.88449 173.381 6.10213 172.834 6.56338C172.287 7.02464 172.014 7.7499 172.014 8.73919V9.14541H171.121V10.8148H172.014V17.1901H174.023V10.8148ZM176.459 7.84665C176.348 7.73596 176.261 7.60391 176.201 7.4582C176.142 7.31249 176.111 7.15605 176.111 6.99803C176.111 6.84 176.142 6.68357 176.201 6.53786C176.261 6.39215 176.348 6.26009 176.459 6.14941C176.698 5.92976 177.008 5.8083 177.329 5.8083C177.651 5.8083 177.961 5.92976 178.2 6.14941C178.31 6.26035 178.397 6.39249 178.456 6.53816C178.515 6.68384 178.546 6.84015 178.546 6.99803C178.546 7.15591 178.515 7.31222 178.456 7.45789C178.397 7.60357 178.31 7.73571 178.2 7.84665C177.961 8.0663 177.651 8.18776 177.329 8.18776C177.008 8.18776 176.698 8.0663 176.459 7.84665ZM178.305 9.14508V17.1898H176.314V9.14508H178.305ZM181.267 9.53116C180.683 9.87055 180.207 10.3738 179.893 10.9817C179.55 11.6549 179.38 12.4059 179.397 13.1649C179.383 13.9234 179.557 14.6731 179.902 15.3444C180.216 15.9517 180.692 16.4544 181.276 16.7931C181.889 17.1443 182.583 17.3223 183.285 17.3088C184.248 17.31 185.051 17.0534 185.693 16.539C186.34 16.0179 186.795 15.2865 186.982 14.4652H184.835C184.587 15.1997 184.063 15.567 183.262 15.567C183.005 15.5783 182.749 15.5272 182.516 15.4179C182.282 15.3086 182.077 15.1443 181.917 14.9382C181.587 14.5264 181.422 13.9335 181.422 13.1593C181.422 12.3852 181.587 11.788 181.917 11.3675C182.076 11.1611 182.282 10.9964 182.515 10.8868C182.749 10.7772 183.005 10.7258 183.262 10.7368C183.617 10.724 183.967 10.828 184.261 11.0336C184.533 11.2371 184.734 11.5244 184.835 11.8535H186.973C186.798 11.0228 186.344 10.2812 185.691 9.75746C185.054 9.26282 184.249 9.0155 183.276 9.0155C182.574 9.00107 181.88 9.17909 181.267 9.53116ZM188.211 7.84665C188.101 7.73571 188.014 7.60357 187.955 7.45789C187.895 7.31222 187.865 7.15591 187.865 6.99803C187.865 6.84015 187.895 6.68384 187.955 6.53816C188.014 6.39249 188.101 6.26035 188.211 6.14941C188.45 5.92976 188.76 5.8083 189.082 5.8083C189.403 5.8083 189.713 5.92976 189.952 6.14941C190.062 6.26009 190.15 6.39215 190.21 6.53786C190.269 6.68357 190.3 6.84 190.3 6.99803C190.3 7.15605 190.269 7.31249 190.21 7.4582C190.15 7.60391 190.062 7.73596 189.952 7.84665C189.713 8.0663 189.403 8.18776 189.082 8.18776C188.76 8.18776 188.45 8.0663 188.211 7.84665ZM190.059 9.14508V17.1898H188.068V9.14508H190.059ZM192.912 9.52387C192.358 9.87406 191.911 10.3767 191.623 10.9744C191.297 11.6456 191.133 12.3874 191.145 13.1372C191.127 13.893 191.286 14.6422 191.608 15.3223C191.898 15.9248 192.344 16.4337 192.897 16.7932C193.439 17.1421 194.068 17.3237 194.708 17.3163C195.247 17.3274 195.78 17.1999 196.259 16.9453C196.678 16.7233 197.04 16.4022 197.314 16.0086V17.1902H199.305V9.14547H197.314V10.3011C197.033 9.9194 196.673 9.60694 196.259 9.38661C195.785 9.13352 195.256 9.00599 194.722 9.01563C194.084 9.00892 193.457 9.18495 192.912 9.52387ZM196.275 11.0894C196.6 11.2807 196.865 11.5624 197.039 11.9019V11.8963C197.236 12.2856 197.334 12.7194 197.323 13.1576C197.335 13.5984 197.237 14.0349 197.039 14.4264C196.864 14.7661 196.599 15.0483 196.275 15.2407C195.961 15.4263 195.604 15.5235 195.242 15.5226C194.884 15.5232 194.533 15.4224 194.228 15.2314C193.904 15.03 193.64 14.7421 193.464 14.3986C193.264 14.0076 193.164 13.571 193.174 13.1298C193.163 12.6926 193.263 12.2598 193.464 11.874C193.64 11.5394 193.902 11.2609 194.222 11.069C194.533 10.8893 194.885 10.7983 195.242 10.8056C195.605 10.8045 195.961 10.9024 196.275 11.0894ZM202.889 6.4464V17.19H200.907V6.4464H202.889ZM72.9608 34.1126V23.9848H70.9787V34.1126H72.9608ZM81.1735 26.8636C81.7491 27.4683 82.037 28.3123 82.037 29.3955V34.1125H80.0548V29.6719C80.0548 29.0338 79.8973 28.5441 79.5878 28.1991C79.4243 28.0259 79.2268 27.8904 79.0084 27.8015C78.7899 27.7126 78.5554 27.6723 78.3206 27.6835C78.0813 27.6706 77.842 27.7099 77.6186 27.7988C77.3951 27.8877 77.1927 28.0241 77.0245 28.1991C76.7077 28.5441 76.5502 29.0338 76.5502 29.6719V34.1125H74.568V26.0734H76.5593V27.075C76.8279 26.7229 77.1748 26.4418 77.5712 26.2552C77.9946 26.0536 78.4566 25.9516 78.9234 25.9565C79.8466 25.9565 80.5966 26.2589 81.1735 26.8636ZM85.8745 31.6375V27.7423H87.625V26.0728H85.8691V24.0844H83.8779V26.0728H82.942V27.7423H83.8779V31.6264C83.8779 33.2909 84.713 34.1231 86.3832 34.1231H87.6305V32.411H86.7091C86.4793 32.4324 86.2499 32.3664 86.0646 32.2256C85.995 32.1463 85.9422 32.0532 85.9095 31.952C85.8768 31.8507 85.8649 31.7437 85.8745 31.6375ZM95.9415 30.7009H90.2068C90.2249 31.217 90.4378 31.7057 90.8005 32.0643C91.1511 32.3944 91.6135 32.5714 92.0894 32.5577C92.4164 32.5767 92.7414 32.4943 93.022 32.3213C93.3026 32.1482 93.5258 31.8925 93.6625 31.5876H95.7985C95.5801 32.3521 95.1229 33.022 94.497 33.4944C93.8116 34.0047 92.9795 34.2659 92.1328 34.2364C91.423 34.248 90.7225 34.0703 90.1 33.7207C89.5058 33.3829 89.0194 32.8766 88.6989 32.2627C88.3539 31.5929 88.1808 30.8442 88.1956 30.0869C88.179 29.3279 88.3482 28.5766 88.688 27.9019C89.0018 27.2892 89.4847 26.7847 90.0764 26.4513C90.7028 26.1199 91.3971 25.9457 92.1021 25.9431C92.8071 25.9405 93.5026 26.1096 94.1313 26.4365C94.7126 26.7555 95.1901 27.2416 95.5053 27.8351C95.8394 28.4752 96.0077 29.1924 95.994 29.9181C95.9976 30.1801 95.9801 30.4419 95.9415 30.7009ZM93.9503 29.3376C93.9554 29.1002 93.9093 28.8646 93.8155 28.6476C93.7216 28.4305 93.5822 28.2374 93.4072 28.0818C93.0391 27.7646 92.5702 27.5969 92.0894 27.6106C91.6349 27.5969 91.1923 27.7607 90.8512 28.0688C90.5019 28.4007 90.283 28.8519 90.2357 29.3376H93.9503ZM99.0698 34.1118V23.3737H97.0785V34.1118H99.0698ZM102.653 23.3737V34.1118H100.67V23.3737H102.653ZM104.13 24.3861C104.19 24.5318 104.277 24.6639 104.387 24.7746C104.626 24.9942 104.936 25.1157 105.258 25.1157C105.579 25.1157 105.889 24.9942 106.129 24.7746C106.238 24.6636 106.325 24.5315 106.385 24.3858C106.444 24.2401 106.475 24.0838 106.475 23.9259C106.475 23.7681 106.444 23.6117 106.385 23.4661C106.325 23.3204 106.238 23.1883 106.129 23.0773C105.889 22.8577 105.579 22.7362 105.258 22.7362C104.936 22.7362 104.626 22.8577 104.387 23.0773C104.277 23.188 104.19 23.3201 104.13 23.4658C104.07 23.6115 104.039 23.7679 104.039 23.9259C104.039 24.084 104.07 24.2404 104.13 24.3861ZM106.234 34.1121V26.073H104.255V34.1121H106.234ZM112.452 26.2974C112.869 26.5139 113.229 26.8324 113.498 27.2249V26.0785H115.489V34.1752C115.501 34.8668 115.35 35.5511 115.051 36.1711C114.756 36.7582 114.297 37.2423 113.733 37.5623C113.082 37.9225 112.35 38.1004 111.61 38.0779C110.495 38.0779 109.581 37.8121 108.869 37.2803C108.524 37.0306 108.237 36.7063 108.028 36.3303C107.819 35.9544 107.692 35.5359 107.658 35.1045H109.631C109.738 35.4745 109.979 35.7884 110.305 35.9819C110.685 36.2081 111.12 36.3205 111.559 36.3065C111.815 36.3178 112.071 36.277 112.312 36.1862C112.552 36.0955 112.773 35.9566 112.96 35.7778C113.322 35.4254 113.503 34.8912 113.503 34.1752V32.9269C113.229 33.3218 112.868 33.6452 112.45 33.871C111.976 34.1256 111.448 34.2532 110.913 34.242C110.273 34.2477 109.645 34.0662 109.103 33.7189C108.546 33.3606 108.097 32.8507 107.807 32.2461C107.48 31.5678 107.317 30.8191 107.332 30.0629C107.318 29.3139 107.481 28.5724 107.807 27.9019C108.095 27.3047 108.541 26.8022 109.094 26.4514C109.643 26.1113 110.273 25.9352 110.915 25.9431C111.448 25.9322 111.975 26.0538 112.452 26.2974ZM113.216 28.822C113.039 28.4841 112.775 28.2029 112.452 28.0095C112.137 27.8239 111.781 27.7266 111.418 27.7276C111.054 27.7238 110.695 27.8227 110.382 28.0134C110.068 28.204 109.812 28.4793 109.64 28.809C109.439 29.194 109.339 29.6262 109.351 30.0629C109.341 30.5047 109.44 30.9419 109.64 31.3335C109.817 31.677 110.081 31.965 110.404 32.1663C110.709 32.3576 111.06 32.4584 111.418 32.4576C111.781 32.4585 112.137 32.3612 112.452 32.1756C112.775 31.982 113.04 31.7001 113.216 31.3613C113.401 30.9651 113.498 30.5312 113.498 30.0916C113.498 29.6521 113.401 29.2181 113.216 28.822ZM118.582 30.7009H124.317C124.354 30.4418 124.371 30.18 124.366 29.9182C124.38 29.1925 124.212 28.4753 123.879 27.8351C123.563 27.242 123.086 26.756 122.505 26.4365C121.876 26.1096 121.18 25.9405 120.475 25.9431C119.77 25.9457 119.075 26.1199 118.448 26.4513C117.857 26.7854 117.375 27.2898 117.062 27.9019C116.72 28.578 116.549 29.3312 116.566 30.0925C116.551 30.8477 116.724 31.5944 117.067 32.2628C117.388 32.8772 117.875 33.3835 118.47 33.7207C119.092 34.0701 119.792 34.2478 120.501 34.2364C121.348 34.2663 122.181 34.0052 122.867 33.4944C123.492 33.0209 123.949 32.3514 124.168 31.5876H122.038C121.903 31.8934 121.68 32.1499 121.4 32.3231C121.119 32.4964 120.794 32.5782 120.467 32.5577C119.991 32.5719 119.528 32.3948 119.178 32.0643C118.814 31.7059 118.601 31.2172 118.582 30.7009ZM122.191 28.6476C122.285 28.8647 122.331 29.1002 122.326 29.3376H118.611C118.659 28.8521 118.878 28.4011 119.227 28.0688C119.568 27.7607 120.012 27.597 120.467 27.6107C120.947 27.5968 121.415 27.7645 121.783 28.0818C121.958 28.2374 122.097 28.4306 122.191 28.6476ZM132.077 26.8636C132.653 27.4683 132.941 28.3123 132.941 29.3955V34.1126H130.949V29.6719C130.949 29.0338 130.794 28.5441 130.482 28.1991C130.319 28.026 130.122 27.8904 129.903 27.8015C129.685 27.7126 129.45 27.6724 129.215 27.6835C128.976 27.671 128.737 27.7104 128.513 27.7993C128.29 27.8882 128.088 28.0244 127.919 28.1991C127.602 28.5441 127.445 29.0338 127.445 29.6719V34.1126H125.454V26.0734H127.445V27.0751C127.714 26.7222 128.061 26.441 128.459 26.2552C128.881 26.0534 129.343 25.9513 129.809 25.9566C130.747 25.9566 131.503 26.2589 132.077 26.8636ZM135.828 26.457C135.245 26.7977 134.768 27.3014 134.454 27.9094H134.45C134.125 28.589 133.956 29.3358 133.956 30.0926C133.956 30.8495 134.125 31.5963 134.45 32.2759C134.765 32.8833 135.241 33.3864 135.824 33.7264C136.438 34.0774 137.131 34.2553 137.834 34.2421C138.798 34.2433 139.6 33.9867 140.241 33.4723C140.888 32.9512 141.343 32.2198 141.53 31.3985H139.392C139.146 32.133 138.622 32.5003 137.821 32.5003C137.564 32.5114 137.308 32.46 137.075 32.3504C136.841 32.2408 136.636 32.076 136.476 31.8696C136.145 31.4591 135.98 30.8668 135.98 30.0926C135.98 29.3185 136.145 28.7213 136.476 28.3008C136.637 28.0925 136.843 27.9265 137.079 27.8164C137.315 27.7064 137.573 27.6557 137.832 27.6683C138.187 27.6559 138.537 27.7606 138.829 27.9669C139.099 28.1689 139.297 28.4545 139.396 28.7812H141.534C141.359 27.9509 140.906 27.2093 140.254 26.6852C139.617 26.1905 138.811 25.9432 137.837 25.9432C137.135 25.9293 136.442 26.1066 135.828 26.457ZM149.874 30.7009H144.141C144.16 31.2172 144.373 31.7059 144.736 32.0643C145.087 32.3948 145.549 32.5719 146.025 32.5577C146.352 32.5782 146.677 32.4964 146.958 32.3231C147.239 32.1499 147.461 31.8934 147.596 31.5876H149.734C149.513 32.3524 149.053 33.0221 148.425 33.4944C147.74 34.0052 146.907 34.2663 146.06 34.2364C145.35 34.2478 144.65 34.0701 144.028 33.7207C143.434 33.3834 142.947 32.877 142.627 32.2628C142.282 31.5932 142.108 30.8443 142.124 30.087C142.112 29.3264 142.287 28.5751 142.633 27.9019C142.947 27.2898 143.429 26.7854 144.019 26.4513C144.646 26.1199 145.341 25.9457 146.046 25.9431C146.751 25.9405 147.447 26.1096 148.076 26.4365C148.657 26.756 149.134 27.242 149.45 27.8351C149.784 28.4752 149.952 29.1924 149.939 29.9182C149.938 30.1805 149.916 30.4423 149.874 30.7009ZM147.882 29.3376C147.886 29.0995 147.839 28.8635 147.743 28.6464C147.648 28.4293 147.507 28.2365 147.33 28.0818C146.963 27.7645 146.495 27.5968 146.014 27.6107C145.559 27.597 145.116 27.7607 144.774 28.0688C144.426 28.4011 144.207 28.8521 144.159 29.3376H147.882ZM159.285 32.5007H156.027V23.9848H154.035V34.1126H159.285V32.5007ZM160.146 27.9021C160.435 27.3049 160.88 26.8024 161.433 26.4515C161.982 26.1114 162.613 25.9354 163.254 25.9433C163.788 25.931 164.316 26.0553 164.791 26.305C165.204 26.5259 165.564 26.8383 165.845 27.2195V26.0731H167.836V34.1123H165.845V32.9363C165.57 33.3266 165.209 33.6445 164.791 33.8637C164.312 34.1178 163.779 34.2453 163.24 34.2347C162.6 34.242 161.972 34.0604 161.43 33.7116C160.877 33.3508 160.432 32.8413 160.143 32.2388C159.816 31.5606 159.653 30.8118 159.668 30.0556C159.656 29.3088 159.82 28.57 160.146 27.9021ZM165.562 28.8295C165.386 28.4917 165.121 28.2105 164.798 28.0171C164.484 27.8315 164.128 27.7342 163.765 27.7351C163.4 27.7314 163.042 27.8302 162.728 28.0209C162.415 28.2116 162.159 28.4868 161.987 28.8165C161.786 29.2016 161.686 29.6338 161.698 30.0705C161.688 30.5123 161.787 30.9495 161.987 31.3411C162.163 31.6846 162.427 31.9725 162.751 32.1739C163.056 32.3652 163.407 32.466 163.765 32.4651C164.128 32.4661 164.484 32.3688 164.798 32.1832C165.122 31.9896 165.386 31.7076 165.562 31.3689C165.748 30.9727 165.845 30.5388 165.845 30.0992C165.845 29.6596 165.748 29.2257 165.562 28.8295ZM174.002 25.9428C173.469 25.9326 172.941 26.0568 172.466 26.3045C172.044 26.5245 171.682 26.849 171.414 27.2486V23.3737H169.423V34.1081H171.41V32.9599C171.686 33.3497 172.048 33.6674 172.466 33.8873C172.942 34.1325 173.47 34.2541 174.002 34.2416C174.645 34.2494 175.277 34.0678 175.822 33.7185C176.375 33.3583 176.821 32.8487 177.111 32.2457C177.436 31.5672 177.599 30.8186 177.585 30.0625C177.6 29.3111 177.437 28.5671 177.111 27.8941C176.821 27.2992 176.374 26.7993 175.822 26.451C175.274 26.1104 174.643 25.9343 174.002 25.9428ZM174.504 28.0036C174.828 28.1932 175.093 28.4721 175.27 28.8086C175.47 29.194 175.57 29.626 175.559 30.0625C175.57 30.5068 175.47 30.9466 175.27 31.3406C175.091 31.681 174.827 31.9661 174.504 32.166C174.195 32.3588 173.839 32.4596 173.477 32.4572C173.122 32.4576 172.772 32.3602 172.466 32.1753C172.142 31.9787 171.878 31.6943 171.702 31.3535C171.51 30.9617 171.41 30.5295 171.41 30.0913C171.41 29.653 171.51 29.2208 171.702 28.829C171.878 28.4887 172.142 28.205 172.466 28.0091C172.772 27.8242 173.122 27.7269 173.477 27.7272C173.838 27.7241 174.192 27.8195 174.504 28.0036Z" fill="white"/>
<path d="M7.00708 44C5.77692 43.999 4.56866 43.6664 3.50359 43.0356C2.43853 42.4049 1.55412 41.4981 0.939156 40.4064C0.32419 39.3147 0.000300845 38.0764 2.0948e-07 36.8159C-0.000300426 35.5553 0.322998 34.3169 0.937443 33.2249L16.5704 5.48108C17.5625 3.72045 19.0128 2.27719 20.7592 1.31257C22.5057 0.347948 24.4796 -0.100023 26.4602 0.0187171C28.4408 0.137457 30.3503 0.818229 31.975 1.98496C33.5998 3.15168 34.876 4.7584 35.6609 6.62556L37.3697 10.6878C40.3583 10.3864 43.3642 11.0474 45.969 12.5788C48.5737 14.1101 50.6477 16.4356 51.9021 19.2315L56.6086 29.7117C57.087 30.774 57.3546 31.9232 57.396 33.0924C57.4374 34.2616 57.2516 35.4276 56.8496 36.5226C56.4475 37.6177 55.8372 38.62 55.054 39.4713C54.2708 40.3227 53.3303 41.0061 52.2872 41.4819C51.2441 41.9577 50.1192 42.2165 48.9777 42.2431C47.8362 42.2698 46.7009 42.0637 45.6377 41.6371C44.5746 41.2104 43.6047 40.5715 42.7845 39.7576C41.9643 38.9437 41.3101 37.9709 40.8598 36.8957L33.657 19.7694C33.5954 19.8288 33.5339 19.8881 33.476 19.9549L11.9526 41.9058C10.6401 43.248 8.8613 44.0012 7.00708 44ZM25.8188 7.08743C25.1564 7.08286 24.505 7.26004 23.932 7.60057C23.359 7.94109 22.8854 8.43256 22.5604 9.02395L6.92743 36.7696C6.91572 36.7897 6.91201 36.8136 6.91706 36.8364C6.92212 36.8592 6.93556 36.8791 6.95458 36.892C6.97203 36.9051 6.9935 36.9114 7.01509 36.9097C7.03668 36.908 7.05696 36.8984 7.07225 36.8827L28.5884 14.9262C29.274 14.2285 30.026 13.6028 30.8331 13.0584L29.3125 9.43017C29.0415 8.76426 28.5913 8.19109 28.0143 7.77757C27.4373 7.36406 26.7575 7.12726 26.0541 7.09485C25.9763 7.08928 25.8984 7.08743 25.8188 7.08743ZM40.3946 17.883L47.2064 34.093C47.2878 34.3163 47.413 34.5203 47.5742 34.6922C47.7355 34.8641 47.9294 35.0003 48.1441 35.0924C48.3587 35.1846 48.5894 35.2307 48.8221 35.2279C49.0548 35.2251 49.2845 35.1735 49.4969 35.0762C49.7094 34.979 49.9002 34.8382 50.0575 34.6625C50.2148 34.4868 50.3353 34.2799 50.4116 34.0546C50.4878 33.8294 50.5182 33.5905 50.5009 33.3527C50.4836 33.1149 50.419 32.8833 50.3109 32.6721L45.6044 22.1919C45.1262 21.1056 44.4055 20.1497 43.5006 19.4013C42.5956 18.6528 41.5317 18.1327 40.3946 17.883Z" fill="url(#paint0_linear_4024_485)"/>
<path d="M33.657 19.7773C34.447 18.7837 35.5195 18.0517 36.7258 17.7132C37.9321 17.3746 39.2114 17.4305 40.3852 17.873C41.0936 19.5536 41.8032 21.2341 42.514 22.9147L36.2034 25.8157L33.657 19.7773Z" fill="url(#paint1_linear_4024_485)"/>
<defs>
<linearGradient id="paint0_linear_4024_485" x1="33.5374" y1="-12.0258" x2="-16.5098" y2="10.9064" gradientUnits="userSpaceOnUse">
<stop stop-color="#FFBBAC"/>
<stop offset="0.482869" stop-color="#E498FF"/>
<stop offset="1" stop-color="#696DD4"/>
</linearGradient>
<linearGradient id="paint1_linear_4024_485" x1="36.8717" y1="17.6612" x2="39.7433" y2="24.024" gradientUnits="userSpaceOnUse">
<stop stop-color="#CD92B8"/>
<stop offset="1" stop-color="#F7B1C7" stop-opacity="0"/>
</linearGradient>
</defs>
</svg>
