<svg width="151" height="37" viewBox="0 0 151 37" fill="none" xmlns="http://www.w3.org/2000/svg">
<g clip-path="url(#clip0_1929_1848)">
<path d="M50.8077 23.7182L55.6583 11.1603H57.9281L62.7786 23.7182H60.1979L59.2692 21.1274H54.3172L53.3885 23.7182H50.8077ZM55.14 18.9349H58.4421L56.7921 14.3498L55.14 18.9349ZM64.0226 23.7182V11.1603H66.4997V23.7182H64.0226ZM72.3718 23.7182L77.2223 11.1603H79.4921L84.3427 23.7182H81.7619L80.8332 21.1274H75.8812L74.9525 23.7182H72.3739H72.3718ZM76.7062 18.9349H80.0083L78.3583 14.3498L76.7062 18.9349ZM91.6746 20.3305H94.0481C93.614 22.1453 91.882 23.8183 89.61 23.8183C87.0508 23.8183 84.8631 21.7261 84.8631 19.1331C84.8631 16.5402 87.0508 14.4479 89.61 14.4479C91.8798 14.4479 93.614 16.123 94.0481 17.9357H91.6746C91.571 17.6958 91.4069 17.4768 91.2211 17.2974C90.8907 16.9782 90.3745 16.6403 89.6122 16.6403C88.271 16.6403 87.2387 17.6166 87.2387 19.1331C87.2387 20.6497 88.271 21.6259 89.6122 21.6259C90.3767 21.6259 90.8929 21.3068 91.2211 20.9876C91.4069 20.8082 91.571 20.5892 91.6746 20.3305ZM101.581 23.7182L101.168 22.8212C100.942 23.0006 100.715 23.18 100.447 23.3198C99.972 23.5785 99.3111 23.8183 98.4862 23.8183C96.4215 23.8183 95.2877 22.742 95.2877 21.2275C95.2877 19.4126 96.6289 18.1381 100.963 18.1381C100.963 17.1222 100.343 16.5423 99.4148 16.5423C98.7755 16.5423 98.4451 16.8009 98.2184 17.0408C98.0953 17.1806 98.011 17.36 97.97 17.5394H95.5966C95.8233 15.8643 97.2487 14.45 99.62 14.45C101.767 14.45 103.335 15.9644 103.335 18.0379V23.7182H101.581ZM100.961 20.1302V19.7318C98.1752 19.7318 97.659 20.2304 97.659 21.0272C97.659 21.5258 98.1752 22.0244 98.8965 22.0244C100.134 22.0244 100.961 21.2463 100.961 20.1302ZM112.511 23.7182L112.098 22.8212C111.872 23.0006 111.645 23.18 111.377 23.3198C110.902 23.5785 110.241 23.8183 109.416 23.8183C107.043 23.8183 104.978 21.845 104.978 19.1331C104.978 16.4213 107.043 14.4479 109.416 14.4479C110.181 14.4479 110.798 14.6878 111.232 14.9068C111.481 15.0466 111.707 15.1863 111.893 15.3449V11.1582H114.267V23.7161H112.513L112.511 23.7182ZM109.725 21.6259C111.066 21.6259 112.098 20.6497 112.098 19.1331C112.098 17.6166 111.066 16.6403 109.725 16.6403C108.384 16.6403 107.351 17.6166 107.351 19.1331C107.351 20.6497 108.384 21.6259 109.725 21.6259ZM122.523 20.9271H125C124.506 22.3018 122.916 23.8183 120.769 23.8183C118.21 23.8183 116.022 21.7261 116.022 19.1331C116.022 16.5402 118.21 14.4479 120.769 14.4479C123.329 14.4479 125.309 16.342 125.309 19.1331C125.309 19.3521 125.268 19.5524 125.246 19.7318L125.205 20.0301H118.601C118.828 20.9271 119.53 21.6238 120.767 21.6238C121.406 21.6238 121.799 21.4653 122.108 21.2859C122.272 21.1858 122.417 21.0669 122.521 20.9271H122.523ZM118.5 18.4364H123.039C122.812 17.4205 122.007 16.6424 120.769 16.6424C119.532 16.6424 118.726 17.4205 118.5 18.4364ZM127.058 23.7182V14.548H128.812L129.224 15.445C129.41 15.2656 129.637 15.0862 129.864 14.9464C130.257 14.7065 130.814 14.4479 131.494 14.4479C132.464 14.4479 133.146 14.7462 133.578 15.0466C133.827 15.226 134.032 15.4262 134.176 15.6453C134.403 15.4262 134.652 15.226 134.941 15.0466C135.435 14.7483 136.137 14.4479 136.965 14.4479C139.029 14.4479 140.37 15.7433 140.37 18.2361V23.7182H137.997V18.4364C137.997 17.3203 137.273 16.6424 136.448 16.6424C135.623 16.6424 134.9 17.3203 134.9 18.4364V23.7182H132.526V18.4364C132.526 17.3203 131.803 16.6424 130.978 16.6424C130.153 16.6424 129.43 17.3203 129.43 18.4364V23.7182H127.056H127.058ZM143.053 26.9078V25.0136C144.106 25.0136 144.601 24.5151 144.91 23.8183L145.117 23.3198L141.504 14.548H143.981L146.357 20.5287L148.523 14.548H151L149.162 19.0935C148.234 21.4069 147.305 23.7975 147.182 24.0165C146.253 26.1902 145.428 27.0058 143.878 27.0058C143.651 27.0058 143.446 26.9849 143.301 26.9662L143.053 26.9057V26.9078Z" fill="white"/>
<path d="M28.1984 0H10.1071C4.52511 0 0 4.37088 0 9.76264V27.2374C0 32.6291 4.52511 37 10.1071 37H28.1984C33.7805 37 38.3056 32.6291 38.3056 27.2374V9.76264C38.3056 4.37088 33.7805 0 28.1984 0Z" fill="#D7EB56"/>
<path fill-rule="evenodd" clip-rule="evenodd" d="M24.6544 16.6987L23.5314 17.6979C23.5314 17.6979 23.5314 17.7 23.5314 17.7021C23.5314 17.7042 23.5314 17.7042 23.5314 17.7062L21.7216 19.3167H21.7173C21.7173 19.3167 21.7173 19.3146 21.713 19.3167L13.4243 26.7033C12.934 27.1393 12.3229 27.3625 11.7031 27.3625C11.2301 27.3625 10.7463 27.229 10.3187 26.9599C9.32745 26.3403 8.91064 25.1993 9.28425 24.1229L13.0852 13.0711C13.7526 11.1269 15.5451 9.88361 17.6788 9.92533C19.7974 9.95871 21.5553 11.25 22.1557 13.2171L22.1687 13.263C22.2875 13.651 22.1687 14.0724 21.862 14.3477C21.2616 14.888 20.2811 14.6273 20.0501 13.8679L20.0371 13.8262C19.6484 12.5475 18.5426 12.0781 17.6399 12.0656H17.601C16.7026 12.0656 15.6142 12.5058 15.1844 13.749L11.3877 24.7967C11.3338 24.9552 11.3791 25.0783 11.5195 25.168C11.6663 25.2577 11.8024 25.2452 11.9255 25.1346L17.3872 20.27H17.3915C17.3915 20.27 17.3915 20.2721 17.3959 20.27L23.4148 14.9047L23.8402 14.525L24.0843 14.306L25.9027 12.6914L26.5981 12.0719C27.0451 11.6693 27.7492 11.7006 28.1595 12.1324C28.5483 12.5391 28.5439 13.1545 28.1811 13.5592C28.1552 13.5884 28.1271 13.6197 28.0969 13.6447L26.5916 14.9777L24.7775 16.5965L24.6587 16.7029L24.6544 16.6987Z" fill="#0F0F11"/>
<path d="M28.22 20.3202V20.316C27.9975 19.5817 27.7751 18.8495 27.5548 18.1152C27.3259 17.3601 26.3584 17.0993 25.758 17.6313C25.4449 17.9087 25.3261 18.3364 25.4513 18.7285C25.7472 19.6443 26.0431 20.558 26.3389 21.4717V21.4758C26.6175 22.3353 26.894 23.1927 27.1726 24.0521C27.2114 24.146 27.2784 24.3421 27.2352 24.582C27.2222 24.6717 27.1963 24.826 27.0711 24.9658C26.8767 25.189 26.5938 25.2099 26.5182 25.214C26.367 25.2265 25.8509 25.2224 25.6781 24.655L24.514 20.8626C24.2808 20.1053 23.3068 19.8446 22.7043 20.3786C22.3933 20.654 22.2723 21.0774 22.3911 21.4696L23.553 25.262C23.9698 26.6158 25.2354 27.4586 26.691 27.348C26.935 27.3314 27.8097 27.25 28.5547 26.5658C28.7664 26.3697 29.3732 25.7501 29.4359 24.8218C29.4531 24.5444 29.4186 24.3191 29.3884 24.1668C29.3884 24.1668 29.3884 24.1647 29.3862 24.1647H29.384C28.9975 22.8839 28.6109 21.6031 28.2222 20.3223L28.22 20.3202Z" fill="#0F0F11"/>
<path d="M25.2052 10.7994L25.1728 10.6951C25.0087 10.159 24.4277 9.84609 23.8641 10.0046C23.309 10.1632 22.9894 10.7285 23.1535 11.2646L23.1859 11.371C23.4062 12.0969 24.3392 12.3452 24.9115 11.832C25.203 11.5692 25.3175 11.1707 25.2052 10.8015V10.7994Z" fill="#0F0F11"/>
</g>
<defs>
<clipPath id="clip0_1929_1848">
<rect width="151" height="37" fill="white"/>
</clipPath>
</defs>
</svg>
