<svg width="100" height="26" viewBox="0 0 100 26" fill="none" xmlns="http://www.w3.org/2000/svg">
<path d="M23.3174 19.7764C23.3969 19.9665 23.4991 20.1511 23.6104 20.332C24.2335 21.3134 25.2863 22.0336 26.4912 22.3096H26.5039L26.5166 22.3164C26.8248 22.3869 27.1552 22.4293 27.4951 22.4385L27.5527 22.4453H27.6416C29.2186 22.4453 30.6591 21.7424 31.5176 20.5615L31.5879 20.457C31.7403 20.2425 31.8673 20.0153 31.9658 19.7793H34.9453L34.9512 19.7764C34.7572 20.6106 34.401 21.3957 33.9209 22.0889C33.9177 22.0981 33.9119 22.108 33.9023 22.1172C32.5734 24.0309 30.2681 25.2909 27.6484 25.291C27.5722 25.291 27.4957 25.2913 27.4258 25.2852C26.8918 25.2698 26.3704 25.2055 25.8682 25.0859C23.8938 24.6412 22.23 23.4543 21.2158 21.8594C20.8152 21.2245 20.5167 20.5217 20.3418 19.7764H23.3174ZM89.4971 6.73242C90.8165 5.44118 92.502 5.10945 94.3047 5.2168C95.5574 5.29041 96.721 5.64051 97.6748 6.47168C98.5076 7.19849 98.8832 8.12137 98.9023 9.23145H96.3174C95.6973 7.54166 93.2104 6.95024 91.7988 8.14941C91.014 8.815 91.1222 9.8974 92.0918 10.3145C92.8262 10.6273 93.6373 10.7811 94.4131 11.002C95.2841 11.2503 96.184 11.4339 97.0264 11.7559C98.4666 12.3018 99.2679 13.3511 99.3506 14.8662C99.4364 16.4517 98.8288 17.7425 97.3379 18.4326C94.8994 19.5613 92.4225 19.5803 90.0762 18.1543C88.9062 17.4458 88.3404 16.3439 88.2832 14.9453V14.9424H90.9277C91.0708 15.979 91.7833 16.4548 92.7402 16.6787C93.5953 16.878 94.4538 16.8752 95.293 16.6055C96.1004 16.3448 96.5655 15.7833 96.5879 15.0781C96.607 14.4035 96.241 13.851 95.4209 13.5811C94.4989 13.2805 93.5317 13.1028 92.5938 12.8359C91.834 12.6182 91.0488 12.4247 90.3525 12.0781C88.2988 11.0538 87.8696 8.32427 89.4971 6.73242ZM61.7822 6.28223C64.2749 4.75176 66.9038 4.78547 69.4219 6.21777C71.978 7.67153 73.0405 9.93454 72.8594 12.7715C72.8339 13.1855 72.5855 13.1641 72.293 13.1641H61.4355C61.5246 14.2559 62.0047 15.0963 62.8408 15.7373C64.5035 17.0131 67.0848 16.9336 68.6777 15.5537C68.9384 15.3299 69.1836 15.2467 69.5205 15.2559C70.4117 15.2742 71.3 15.2618 72.2891 15.2617C71.7139 16.4116 70.9339 17.2413 69.9629 17.8965C66.5419 20.1998 61.9604 19.3935 59.6426 16.0996C57.3852 12.8915 58.3231 8.40161 61.7822 6.28223ZM38.8457 8.27148C40.6166 5.7904 43.1732 4.75671 46.2539 5.34863C49.306 5.93449 51.1916 7.81783 51.9355 10.7314C52.0468 11.1608 52.0876 11.6178 52.0908 12.0625C52.1067 14.2522 52.1006 16.4392 52.1006 18.6289C52.1006 18.7209 52.0879 18.8165 52.0752 18.9668V18.9609H49.3408V17.0654C48.4824 18.1419 47.3982 18.7893 46.0693 19.0684C43.2747 19.6542 40.146 18.3382 38.623 15.8203C37.0874 13.2869 37.1193 10.6914 38.8457 8.27148ZM6.74023 6.91602C8.88312 5.02996 12.1386 4.65282 14.876 5.97461C17.4544 7.21676 18.9965 9.91881 18.7295 12.6914C18.6945 13.0564 18.5673 13.167 18.1826 13.167C16.4738 13.1609 14.7643 13.159 13.0547 13.1582H7.29004C7.38549 14.2344 7.85609 15.0652 8.67285 15.7061C10.3261 17.0065 12.9337 16.9183 14.5615 15.5596C14.7617 15.391 15.0729 15.2798 15.3398 15.2705C16.2327 15.2337 17.126 15.2578 18.1553 15.2578C17.5609 16.4312 16.7832 17.2593 15.8047 17.9121C12.5967 20.0468 8.26586 19.4756 5.90039 16.6201C3.46849 13.6819 3.8312 9.47386 6.74023 6.91602ZM37.3516 3.89551C36.6998 4.66841 34.4043 7.0643 33.7334 7.85254C33.8605 8.00272 33.9848 8.15886 34.0928 8.32129V8.32422C34.096 8.32733 34.1023 8.33667 34.1055 8.34277C34.8685 9.44077 35.3066 10.7447 35.3066 12.1494C35.3066 13.554 34.8684 14.8574 34.1055 15.9492C34.0991 15.9584 34.0955 15.9674 34.0859 15.9766C32.7569 17.8874 30.4519 19.1514 27.832 19.1514C27.7558 19.1514 27.6793 19.1516 27.6094 19.1455C27.0722 19.1302 26.554 19.0649 26.0518 18.9453C24.0774 18.5006 22.4114 17.3136 21.4004 15.7188C20.7392 14.676 20.3545 13.4489 20.3545 12.1455C20.3548 8.27813 23.6992 5.14648 27.8291 5.14648C29.1771 5.14649 30.4454 5.48469 31.5391 6.06738L31.6475 5.93555L31.8379 5.71777C32.5914 4.86512 34.5222 2.83701 35.085 2.15918C35.8416 2.73576 36.579 3.30359 37.3516 3.89551ZM56.8232 18.9639H54.1396V0.0126953H56.8232V18.9639ZM80.9355 5.20508C84.3151 5.35546 86.5402 7.2914 86.75 10.5547C86.928 13.3088 86.833 16.0785 86.8584 18.8418C86.8582 18.8693 86.833 18.897 86.8076 18.9551H84.0957V11.9004C84.0957 11.0326 84.0098 10.177 83.5967 9.38281C82.9544 8.14371 81.8283 7.763 80.4961 7.7998C79.1355 7.8367 78.0606 8.36779 77.5996 9.66504C77.3835 10.2753 77.2442 10.9381 77.2314 11.582C77.1869 13.8516 77.2122 16.1211 77.209 18.3906V18.9492H74.4746C74.4651 18.8174 74.4434 18.679 74.4434 18.541C74.4434 16.2715 74.4015 14.0019 74.4619 11.7324C74.4874 10.8154 74.5991 9.86701 74.8916 8.99902C75.766 6.40447 77.9629 5.0732 80.9355 5.20508ZM2.68359 18.9453H0V0H2.68359V18.9453ZM44.7461 7.76855C42.1488 7.85772 40.2607 9.8361 40.3369 12.3877C40.41 14.8322 42.4924 16.706 45.0391 16.6201C47.5317 16.5342 49.4398 14.5529 49.3604 12.1299L49.3633 12.127C49.2805 9.56296 47.2864 7.67961 44.7461 7.76855ZM27.835 7.99023C25.2822 7.99047 23.2004 9.85483 23.2002 12.1426C23.2002 12.8602 23.4098 13.5659 23.8008 14.1885C24.4239 15.1699 25.4766 15.891 26.6816 16.167H26.6943L26.707 16.1729C27.0152 16.2433 27.3456 16.2867 27.6855 16.2959L27.7432 16.3018H27.832C29.409 16.3018 30.8527 15.5997 31.708 14.4189L31.7783 14.3145L31.7842 14.3086C32.2388 13.6645 32.4746 12.9126 32.4746 12.1396C32.4746 11.4282 32.2704 10.7346 31.8857 10.1182L31.835 10.0479L31.7461 9.91016C31.708 9.85496 31.6439 9.77864 31.5645 9.68359C31.1862 9.22983 30.7226 8.84926 30.2109 8.57324C29.4924 8.19599 28.6711 7.99023 27.835 7.99023ZM72.2959 15.2617C72.2936 15.2617 72.2913 15.2617 72.2891 15.2617C72.2901 15.2597 72.2919 15.2579 72.293 15.2559L72.2959 15.2617ZM18.1572 15.2588L18.1553 15.2578L18.1572 15.2559V15.2588ZM11.3818 7.77148C9.34706 7.87275 7.46211 9.36414 7.34766 10.9805H15.7314C15.3849 9.14021 13.3721 7.67334 11.3818 7.77148ZM65.6514 7.76953C63.6135 7.78489 61.6486 9.28125 61.4863 10.9619H69.8447C69.6315 9.26591 67.6225 7.75113 65.6514 7.76953Z" fill="white"/>
</svg>
