<svg width="99" height="26" viewBox="0 0 99 26" fill="none" xmlns="http://www.w3.org/2000/svg">
<path d="M2.00529 3.80492C3.11277 3.80492 4.01057 2.95316 4.01057 1.90246C4.01057 0.85176 3.11277 0 2.00529 0C0.897797 0 0 0.85176 0 1.90246C0 2.95316 0.897797 3.80492 2.00529 3.80492Z" fill="url(#paint0_linear_1929_1876)"/>
<path d="M16.8436 3.6884C16.1548 3.01381 15.3275 2.48027 14.4129 2.12068C13.4983 1.7611 12.5158 1.58309 11.5259 1.59764C10.5388 1.5819 9.55897 1.75944 8.64753 2.11918C7.73608 2.47891 6.91263 3.01311 6.22862 3.6884C5.51351 4.34072 4.94805 5.12609 4.56767 5.99533C4.18729 6.86457 4.00016 7.79896 4.01801 8.73998V16.142C4.39909 16.142 4.77643 16.0708 5.1285 15.9325C5.48057 15.7941 5.80047 15.5913 6.06993 15.3357C6.33939 15.08 6.55314 14.7766 6.69897 14.4425C6.8448 14.1085 6.91986 13.7505 6.91986 13.389V8.75946C6.91092 7.71207 7.30238 6.69709 8.02174 5.90252C8.44903 5.41605 8.98527 5.02608 9.59144 4.761C10.1976 4.49593 10.8584 4.36241 11.5259 4.37017C12.1313 4.36931 12.731 4.48171 13.2906 4.70093C13.8502 4.92016 14.3588 5.2419 14.7872 5.64776C15.2156 6.05362 15.5555 6.53563 15.7874 7.06622C16.0193 7.59682 16.1387 8.16558 16.1387 8.73998V16.142C16.5198 16.142 16.8971 16.0708 17.2492 15.9325C17.6013 15.7941 17.9212 15.5913 18.1906 15.3357C18.4601 15.08 18.6738 14.7766 18.8197 14.4425C18.9655 14.1085 19.0405 13.7505 19.0405 13.389V8.73998C19.0561 7.80043 18.8693 6.86776 18.4915 5.99913C18.1137 5.1305 17.553 4.34419 16.8436 3.6884Z" fill="white"/>
<path d="M49.3242 1.90283V9.04517C49.331 9.6208 49.213 10.1916 48.9775 10.7221C48.7421 11.2527 48.3942 11.7317 47.9555 12.1294C47.5365 12.5459 47.0317 12.8761 46.4724 13.0996C45.9131 13.323 45.3114 13.4348 44.7046 13.428C44.0907 13.428 43.4828 13.3134 42.9156 13.0906C42.3484 12.8678 41.833 12.5411 41.3989 12.1294C40.9716 11.7231 40.6364 11.2382 40.4139 10.7044C40.1915 10.1707 40.0865 9.59937 40.1054 9.02569V4.65588C40.1054 3.92572 39.7997 3.22548 39.2555 2.70918C38.7113 2.19288 37.9732 1.90283 37.2036 1.90283V9.04517C37.1883 9.98259 37.3774 10.9129 37.759 11.7777C38.1406 12.6425 38.7064 13.4232 39.421 14.0708C40.105 14.7461 40.9285 15.2803 41.8399 15.64C42.7514 15.9997 43.7312 16.1773 44.7182 16.1615C46.3894 16.1773 48.0156 15.6478 49.3242 14.6616V18.5575C49.3333 19.1575 49.217 19.7534 48.9821 20.3106C48.7472 20.8678 48.3982 21.3754 47.9555 21.804C47.5445 22.2293 47.0448 22.5689 46.4881 22.8012C45.9314 23.0335 45.3298 23.1535 44.7217 23.1535C44.1135 23.1535 43.512 23.0335 42.9553 22.8012C42.3986 22.5689 41.8989 22.2293 41.4879 21.804C41.0155 21.37 40.6387 20.8513 40.3792 20.2781C40.1688 19.7499 39.7945 19.2946 39.3058 18.9723C38.817 18.6501 38.2368 18.476 37.6416 18.4731C37.4876 18.4681 37.3336 18.4811 37.183 18.512C37.1683 19.4791 37.3623 20.4388 37.7531 21.3321C38.1438 22.2254 38.7231 23.0334 39.4552 23.7064C40.1304 24.3875 40.9453 24.9302 41.8498 25.3011C42.7544 25.6721 43.7294 25.8635 44.7148 25.8635C45.7003 25.8635 46.6753 25.6721 47.5798 25.3011C48.4844 24.9302 49.2993 24.3875 49.9744 23.7064C50.6822 23.0627 51.2487 22.2923 51.641 21.4398C52.0334 20.5872 52.2438 19.6694 52.2603 18.7393V4.65588C52.2603 3.92572 51.9546 3.22548 51.4104 2.70918C50.8662 2.19288 50.1281 1.90283 49.3585 1.90283H49.3242Z" fill="white"/>
<path d="M64.4024 3.35687C63.8479 2.80575 63.1792 2.36952 62.4383 2.07562C61.6974 1.78173 60.9004 1.63654 60.0975 1.6492C59.2943 1.64402 58.498 1.7903 57.7549 2.07953C57.0117 2.36876 56.3366 2.79518 55.7686 3.33403C55.2006 3.87288 54.7511 4.51342 54.4463 5.21845C54.1414 5.92348 53.9872 6.67895 53.9927 7.44098V16.1416C54.3738 16.1416 54.7511 16.0704 55.1032 15.9321C55.4553 15.7937 55.7751 15.5909 56.0446 15.3353C56.3141 15.0797 56.5278 14.7762 56.6737 14.4421C56.8195 14.1081 56.8945 13.7501 56.8945 13.3886V7.54487C56.8879 7.12113 56.9711 6.70045 57.1393 6.30782C57.3074 5.91519 57.557 5.55863 57.8732 5.25933C58.1641 4.98186 58.5111 4.76293 58.8933 4.61566C59.2755 4.46839 59.6851 4.3958 60.0975 4.40225C60.519 4.397 60.9371 4.47315 61.3266 4.62608C61.716 4.779 62.0686 5.0055 62.3629 5.29179C62.4684 5.39375 62.5667 5.5022 62.6572 5.61644H65.9012C65.601 4.75958 65.0868 3.98433 64.4024 3.35687Z" fill="white"/>
<path d="M35.944 7.23353C35.6149 5.9315 34.9029 4.74488 33.8908 3.81171C33.0811 3.02815 32.0932 2.43071 31.0026 2.06508L30.6399 1.9482C29.8992 1.74553 29.1317 1.64494 28.3609 1.64953C27.3303 1.6325 26.3069 1.81551 25.3536 2.18733C24.4003 2.55915 23.5372 3.11192 22.8172 3.81171C22.0802 4.49001 21.4971 5.30419 21.104 6.2042C20.7109 7.1042 20.516 8.07098 20.5314 9.04509C20.5314 9.14898 20.5314 9.25936 20.5314 9.36974C20.5314 9.48012 20.5314 9.58401 20.5314 9.69439C20.645 11.3041 21.3413 12.8271 22.5024 14.0058L22.783 14.285C24.2546 15.67 26.2435 16.4471 28.3164 16.4471C30.3893 16.4471 32.3781 15.67 33.8497 14.285C33.9456 14.1941 34.0414 14.0967 34.1235 14.0058C34.6436 13.4749 35.0731 12.8703 35.3965 12.2137H32.919C32.3299 12.2221 31.7601 12.4137 31.2969 12.7591C30.671 13.2368 29.9176 13.5402 29.1206 13.6357C29.028 13.6529 28.9342 13.6637 28.8399 13.6681C28.685 13.678 28.5295 13.678 28.3746 13.6681H28.3403C28.1808 13.678 28.0208 13.678 27.8613 13.6681L27.567 13.6357C27.3359 13.6076 27.1072 13.5642 26.8826 13.5058C26.732 13.4604 26.5814 13.4149 26.4377 13.3565C26.058 13.209 25.703 13.01 25.3837 12.7656C25.269 12.6926 25.1614 12.61 25.0621 12.5189L24.8499 12.3241C24.6993 12.1812 24.5625 12.0319 24.4393 11.889C24.2775 11.6839 24.1333 11.4667 24.0081 11.2397C23.967 11.1683 23.9191 11.0839 23.8781 10.9995C23.846 10.9463 23.8207 10.8896 23.8028 10.8307C23.7667 10.7565 23.7348 10.6807 23.707 10.6034C23.6692 10.5129 23.6394 10.4195 23.618 10.3242C23.5478 10.1124 23.4974 9.89513 23.4674 9.67492H36.1356C36.1356 9.57752 36.1356 9.48012 36.1356 9.38273V9.05808C36.1477 8.44486 36.0833 7.83244 35.944 7.23353ZM23.837 7.23353C24.0447 6.75287 24.344 6.31265 24.7199 5.93493L24.8773 5.7726L25.0894 5.5843C25.1852 5.48942 25.2933 5.40651 25.4111 5.33757C25.6039 5.18571 25.8126 5.05299 26.0339 4.94149C26.0928 4.91014 26.1547 4.88405 26.2187 4.86358C26.2936 4.81779 26.374 4.78073 26.4582 4.7532C26.6026 4.69169 26.7512 4.63962 26.9031 4.59736C27.1269 4.53551 27.3559 4.49206 27.5875 4.4675C27.6845 4.44817 27.7829 4.43515 27.8818 4.42854C28.0392 4.42854 28.1966 4.42854 28.3609 4.42854H28.3951C28.5525 4.42854 28.7099 4.42854 28.8605 4.42854C28.9549 4.43517 29.0486 4.44818 29.1411 4.4675C29.9324 4.564 30.6806 4.86499 31.3038 5.33757C31.4204 5.40813 31.5283 5.4909 31.6254 5.5843C31.7007 5.64274 31.7692 5.70767 31.8376 5.7726L31.995 5.93493C32.3732 6.31095 32.6728 6.7516 32.8779 7.23353H23.837Z" fill="white"/>
<path d="M95.8499 3.68808C94.4391 2.35583 92.5296 1.60791 90.539 1.60791C88.5484 1.60791 86.6389 2.35583 85.2281 3.68808C84.5152 4.34168 83.9517 5.12743 83.5726 5.99647C83.1934 6.86552 83.0068 7.79927 83.0243 8.73966V16.1417C83.4054 16.1417 83.7827 16.0705 84.1348 15.9322C84.4869 15.7938 84.8068 15.591 85.0762 15.3354C85.3457 15.0797 85.5594 14.7762 85.7053 14.4422C85.8511 14.1082 85.9262 13.7502 85.9262 13.3887V8.73966C85.9177 8.16283 86.0348 7.59055 86.2704 7.05871C86.5059 6.52687 86.8547 6.04692 87.295 5.64897C87.7166 5.23581 88.2219 4.90778 88.7806 4.68462C89.3392 4.46146 89.9397 4.34776 90.5459 4.35037C91.7725 4.35554 92.9467 4.82264 93.8104 5.64897C94.2492 6.04665 94.597 6.52563 94.8325 7.05618C95.068 7.58674 95.186 8.15754 95.1792 8.73317V16.1352C95.9489 16.1352 96.6869 15.8452 97.2311 15.3289C97.7753 14.8126 98.0811 14.1123 98.0811 13.3822V8.73966C98.0926 7.79771 97.9006 6.86351 97.5168 5.99469C97.1331 5.12587 96.5658 4.34086 95.8499 3.68808Z" fill="white"/>
<path d="M79.4383 3.85055C77.9678 2.46595 75.9801 1.68896 73.9083 1.68896C71.8366 1.68896 69.8488 2.46595 68.3784 3.85055C67.284 4.8608 66.5393 6.1629 66.2431 7.58404C66.1402 8.08017 66.0898 8.5848 66.0925 9.09043C66.0925 9.24626 66.0925 9.40209 66.0925 9.55793C66.2149 11.444 67.0936 13.2141 68.5484 14.5049C70.0031 15.7957 71.9234 16.5092 73.9152 16.499C74.9444 16.514 75.9661 16.33 76.918 15.9583C77.8699 15.5866 78.7321 15.0349 79.452 14.3368C80.1895 13.6564 80.7722 12.8399 81.1642 11.9376C81.5562 11.0352 81.7491 10.0662 81.731 9.09043C81.7464 8.11476 81.5509 7.14646 81.1566 6.24525C80.7622 5.34404 80.1774 4.52905 79.4383 3.85055ZM77.3851 12.3824C76.6982 13.0348 75.8229 13.4793 74.8698 13.6597C73.9167 13.8401 72.9286 13.7483 72.0304 13.3959C71.1323 13.0436 70.3645 12.4465 69.8241 11.6801C69.2837 10.9137 68.9949 10.0125 68.9944 9.09043C68.9872 8.48481 69.111 7.88422 69.3582 7.32581C69.6054 6.7674 69.9708 6.26304 70.4316 5.84391C70.8875 5.40965 71.4293 5.06508 72.026 4.82996C72.6226 4.59484 73.2623 4.47381 73.9083 4.47381C74.5544 4.47381 75.1941 4.59484 75.7907 4.82996C76.3873 5.06508 76.9292 5.40965 77.3851 5.84391C77.8418 6.26532 78.2035 6.7704 78.4483 7.32848C78.693 7.88657 78.8156 8.48602 78.8086 9.09043C78.8201 9.70219 78.6998 10.3097 78.455 10.8758C78.2102 11.4419 77.8461 11.9545 77.3851 12.3824Z" fill="white"/>
<defs>
<linearGradient id="paint0_linear_1929_1876" x1="-22.503" y1="-18.4207" x2="42.8487" y2="41.7976" gradientUnits="userSpaceOnUse">
<stop stop-color="#FFCDFF"/>
<stop offset="0.52" stop-color="#A967FF"/>
<stop offset="1" stop-color="#7F00C5"/>
</linearGradient>
</defs>
</svg>
